<mxfile host="app.diagrams.net" modified="2022-03-18T17:45:28.123Z" agent="5.0 (Windows NT 10.0; Win64; x64) AppleWebKit/537.36 (KHTML, like Gecko) Chrome/99.0.4844.51 Safari/537.36 Edg/99.0.1150.39" etag="I-k20uC7Tw0MR6k51-KN" version="17.1.3" type="github" pages="2">
  <diagram id="072bbTEaD_LdQeLK6hjv" name="Page-1">
    <mxGraphModel dx="1085" dy="650" grid="1" gridSize="10" guides="1" tooltips="1" connect="1" arrows="1" fold="1" page="1" pageScale="1" pageWidth="850" pageHeight="1100" math="0" shadow="0">
      <root>
        <mxCell id="0" />
        <mxCell id="1" parent="0" />
        <mxCell id="ckIcHxlf3UzxfT3ee6Hz-8" value="" style="edgeStyle=orthogonalEdgeStyle;rounded=0;orthogonalLoop=1;jettySize=auto;html=1;exitX=0.5;exitY=1;exitDx=0;exitDy=0;exitPerimeter=0;" edge="1" parent="1" source="ckIcHxlf3UzxfT3ee6Hz-138" target="ckIcHxlf3UzxfT3ee6Hz-6">
          <mxGeometry relative="1" as="geometry">
            <mxPoint x="210" y="50" as="sourcePoint" />
          </mxGeometry>
        </mxCell>
        <mxCell id="ckIcHxlf3UzxfT3ee6Hz-18" value="" style="edgeStyle=orthogonalEdgeStyle;rounded=0;orthogonalLoop=1;jettySize=auto;html=1;" edge="1" parent="1" source="ckIcHxlf3UzxfT3ee6Hz-6" target="ckIcHxlf3UzxfT3ee6Hz-17">
          <mxGeometry relative="1" as="geometry" />
        </mxCell>
        <mxCell id="ckIcHxlf3UzxfT3ee6Hz-6" value="" style="verticalLabelPosition=bottom;verticalAlign=top;html=1;shape=hexagon;perimeter=hexagonPerimeter2;arcSize=6;size=0.27;" vertex="1" parent="1">
          <mxGeometry x="80" y="90" width="260" height="90" as="geometry" />
        </mxCell>
        <mxCell id="ckIcHxlf3UzxfT3ee6Hz-10" value="char command = &#39; &#39;" style="text;html=1;strokeColor=none;fillColor=none;align=center;verticalAlign=middle;whiteSpace=wrap;rounded=0;" vertex="1" parent="1">
          <mxGeometry x="136" y="86" width="140" height="30" as="geometry" />
        </mxCell>
        <mxCell id="ckIcHxlf3UzxfT3ee6Hz-11" value="char sanitize = &#39;N&#39;" style="text;html=1;strokeColor=none;fillColor=none;align=center;verticalAlign=middle;whiteSpace=wrap;rounded=0;" vertex="1" parent="1">
          <mxGeometry x="133" y="102" width="140" height="30" as="geometry" />
        </mxCell>
        <mxCell id="ckIcHxlf3UzxfT3ee6Hz-12" value="long duration1, duration2" style="text;html=1;strokeColor=none;fillColor=none;align=center;verticalAlign=middle;whiteSpace=wrap;rounded=0;" vertex="1" parent="1">
          <mxGeometry x="150" y="120" width="140" height="30" as="geometry" />
        </mxCell>
        <mxCell id="ckIcHxlf3UzxfT3ee6Hz-13" value="int distance1, distance2,&lt;br&gt;randnumber" style="text;html=1;strokeColor=none;fillColor=none;align=center;verticalAlign=middle;whiteSpace=wrap;rounded=0;" vertex="1" parent="1">
          <mxGeometry x="150" y="148" width="140" height="30" as="geometry" />
        </mxCell>
        <mxCell id="ckIcHxlf3UzxfT3ee6Hz-20" value="" style="edgeStyle=orthogonalEdgeStyle;rounded=0;orthogonalLoop=1;jettySize=auto;html=1;" edge="1" parent="1" source="ckIcHxlf3UzxfT3ee6Hz-17" target="ckIcHxlf3UzxfT3ee6Hz-19">
          <mxGeometry relative="1" as="geometry" />
        </mxCell>
        <mxCell id="ckIcHxlf3UzxfT3ee6Hz-17" value="Read&lt;br&gt;&lt;br&gt;bt_serial" style="shape=parallelogram;perimeter=parallelogramPerimeter;whiteSpace=wrap;html=1;fixedSize=1;verticalAlign=top;arcSize=6;" vertex="1" parent="1">
          <mxGeometry x="150" y="220" width="120" height="60" as="geometry" />
        </mxCell>
        <mxCell id="ckIcHxlf3UzxfT3ee6Hz-28" style="edgeStyle=orthogonalEdgeStyle;rounded=0;orthogonalLoop=1;jettySize=auto;html=1;exitX=1;exitY=0.5;exitDx=0;exitDy=0;entryX=0.475;entryY=-0.028;entryDx=0;entryDy=0;entryPerimeter=0;" edge="1" parent="1" source="ckIcHxlf3UzxfT3ee6Hz-19" target="ckIcHxlf3UzxfT3ee6Hz-115">
          <mxGeometry relative="1" as="geometry">
            <mxPoint x="340" y="430" as="targetPoint" />
          </mxGeometry>
        </mxCell>
        <mxCell id="ckIcHxlf3UzxfT3ee6Hz-30" style="edgeStyle=orthogonalEdgeStyle;rounded=0;orthogonalLoop=1;jettySize=auto;html=1;exitX=0;exitY=0.5;exitDx=0;exitDy=0;" edge="1" parent="1" source="ckIcHxlf3UzxfT3ee6Hz-19">
          <mxGeometry relative="1" as="geometry">
            <mxPoint x="90" y="430" as="targetPoint" />
          </mxGeometry>
        </mxCell>
        <mxCell id="ckIcHxlf3UzxfT3ee6Hz-19" value="IS&lt;br&gt;&lt;br&gt;bt_serial.available()&lt;br&gt;&lt;br&gt;?" style="rhombus;whiteSpace=wrap;html=1;verticalAlign=top;arcSize=6;" vertex="1" parent="1">
          <mxGeometry x="125" y="320" width="170" height="100" as="geometry" />
        </mxCell>
        <mxCell id="ckIcHxlf3UzxfT3ee6Hz-31" value="Y" style="text;html=1;strokeColor=none;fillColor=none;align=center;verticalAlign=middle;whiteSpace=wrap;rounded=0;" vertex="1" parent="1">
          <mxGeometry x="290" y="346" width="60" height="30" as="geometry" />
        </mxCell>
        <mxCell id="ckIcHxlf3UzxfT3ee6Hz-32" value="N" style="text;html=1;strokeColor=none;fillColor=none;align=center;verticalAlign=middle;whiteSpace=wrap;rounded=0;" vertex="1" parent="1">
          <mxGeometry x="82" y="344" width="60" height="30" as="geometry" />
        </mxCell>
        <mxCell id="ckIcHxlf3UzxfT3ee6Hz-40" value="" style="edgeStyle=orthogonalEdgeStyle;rounded=0;orthogonalLoop=1;jettySize=auto;html=1;entryX=0.5;entryY=0;entryDx=0;entryDy=0;entryPerimeter=0;" edge="1" parent="1" source="ckIcHxlf3UzxfT3ee6Hz-34" target="ckIcHxlf3UzxfT3ee6Hz-139">
          <mxGeometry relative="1" as="geometry">
            <mxPoint x="85" y="510" as="targetPoint" />
          </mxGeometry>
        </mxCell>
        <mxCell id="ckIcHxlf3UzxfT3ee6Hz-34" value="disconnected" style="shape=process;whiteSpace=wrap;html=1;backgroundOutline=1;" vertex="1" parent="1">
          <mxGeometry x="20" y="430" width="130" height="30" as="geometry" />
        </mxCell>
        <mxCell id="ckIcHxlf3UzxfT3ee6Hz-45" value="" style="edgeStyle=orthogonalEdgeStyle;rounded=0;orthogonalLoop=1;jettySize=auto;html=1;" edge="1" parent="1" source="ckIcHxlf3UzxfT3ee6Hz-41" target="ckIcHxlf3UzxfT3ee6Hz-44">
          <mxGeometry relative="1" as="geometry" />
        </mxCell>
        <mxCell id="ckIcHxlf3UzxfT3ee6Hz-41" value="disconnected" style="rounded=1;whiteSpace=wrap;html=1;" vertex="1" parent="1">
          <mxGeometry x="370" y="20" width="120" height="30" as="geometry" />
        </mxCell>
        <mxCell id="ckIcHxlf3UzxfT3ee6Hz-47" value="" style="edgeStyle=orthogonalEdgeStyle;rounded=0;orthogonalLoop=1;jettySize=auto;html=1;" edge="1" parent="1" source="ckIcHxlf3UzxfT3ee6Hz-44" target="ckIcHxlf3UzxfT3ee6Hz-46">
          <mxGeometry relative="1" as="geometry" />
        </mxCell>
        <mxCell id="ckIcHxlf3UzxfT3ee6Hz-44" value="stop&amp;nbsp;" style="shape=process;whiteSpace=wrap;html=1;backgroundOutline=1;" vertex="1" parent="1">
          <mxGeometry x="365" y="80" width="130" height="30" as="geometry" />
        </mxCell>
        <mxCell id="ckIcHxlf3UzxfT3ee6Hz-49" value="" style="edgeStyle=orthogonalEdgeStyle;rounded=0;orthogonalLoop=1;jettySize=auto;html=1;" edge="1" parent="1" source="ckIcHxlf3UzxfT3ee6Hz-46" target="ckIcHxlf3UzxfT3ee6Hz-48">
          <mxGeometry relative="1" as="geometry" />
        </mxCell>
        <mxCell id="ckIcHxlf3UzxfT3ee6Hz-46" value="clear_turn" style="shape=process;whiteSpace=wrap;html=1;backgroundOutline=1;" vertex="1" parent="1">
          <mxGeometry x="365" y="140" width="130" height="30" as="geometry" />
        </mxCell>
        <mxCell id="ckIcHxlf3UzxfT3ee6Hz-51" value="" style="edgeStyle=orthogonalEdgeStyle;rounded=0;orthogonalLoop=1;jettySize=auto;html=1;" edge="1" parent="1" source="ckIcHxlf3UzxfT3ee6Hz-48" target="ckIcHxlf3UzxfT3ee6Hz-50">
          <mxGeometry relative="1" as="geometry" />
        </mxCell>
        <mxCell id="ckIcHxlf3UzxfT3ee6Hz-48" value="humi_on_off(1)" style="shape=process;whiteSpace=wrap;html=1;backgroundOutline=1;" vertex="1" parent="1">
          <mxGeometry x="365" y="200" width="130" height="30" as="geometry" />
        </mxCell>
        <mxCell id="ckIcHxlf3UzxfT3ee6Hz-53" value="" style="edgeStyle=orthogonalEdgeStyle;rounded=0;orthogonalLoop=1;jettySize=auto;html=1;" edge="1" parent="1" source="ckIcHxlf3UzxfT3ee6Hz-50" target="ckIcHxlf3UzxfT3ee6Hz-52">
          <mxGeometry relative="1" as="geometry" />
        </mxCell>
        <mxCell id="ckIcHxlf3UzxfT3ee6Hz-50" value="uv_on_off(1)" style="shape=process;whiteSpace=wrap;html=1;backgroundOutline=1;" vertex="1" parent="1">
          <mxGeometry x="365" y="260" width="130" height="30" as="geometry" />
        </mxCell>
        <mxCell id="ckIcHxlf3UzxfT3ee6Hz-55" value="" style="edgeStyle=orthogonalEdgeStyle;rounded=0;orthogonalLoop=1;jettySize=auto;html=1;entryX=0.5;entryY=0;entryDx=0;entryDy=0;entryPerimeter=0;" edge="1" parent="1" source="ckIcHxlf3UzxfT3ee6Hz-52" target="ckIcHxlf3UzxfT3ee6Hz-140">
          <mxGeometry relative="1" as="geometry">
            <mxPoint x="430.07692307692287" y="376" as="targetPoint" />
          </mxGeometry>
        </mxCell>
        <mxCell id="ckIcHxlf3UzxfT3ee6Hz-52" value="sanitize = &#39;N&#39;" style="rounded=0;whiteSpace=wrap;html=1;" vertex="1" parent="1">
          <mxGeometry x="362.5" y="320" width="135" height="30" as="geometry" />
        </mxCell>
        <mxCell id="ckIcHxlf3UzxfT3ee6Hz-59" value="" style="edgeStyle=orthogonalEdgeStyle;rounded=0;orthogonalLoop=1;jettySize=auto;html=1;" edge="1" parent="1" source="ckIcHxlf3UzxfT3ee6Hz-56" target="ckIcHxlf3UzxfT3ee6Hz-58">
          <mxGeometry relative="1" as="geometry" />
        </mxCell>
        <mxCell id="ckIcHxlf3UzxfT3ee6Hz-56" value="stop" style="rounded=1;whiteSpace=wrap;html=1;" vertex="1" parent="1">
          <mxGeometry x="533" y="20" width="120" height="30" as="geometry" />
        </mxCell>
        <mxCell id="ckIcHxlf3UzxfT3ee6Hz-61" value="" style="edgeStyle=orthogonalEdgeStyle;rounded=0;orthogonalLoop=1;jettySize=auto;html=1;entryX=0.5;entryY=0;entryDx=0;entryDy=0;entryPerimeter=0;" edge="1" parent="1" source="ckIcHxlf3UzxfT3ee6Hz-58" target="ckIcHxlf3UzxfT3ee6Hz-142">
          <mxGeometry relative="1" as="geometry">
            <mxPoint x="593.0000000000002" y="170" as="targetPoint" />
          </mxGeometry>
        </mxCell>
        <mxCell id="ckIcHxlf3UzxfT3ee6Hz-58" value="&lt;font style=&quot;font-size: 10px&quot;&gt;motor1.run(RELEASE)&lt;br&gt;motor2.run(RELEASE)&lt;br&gt;motor3.run(RELEASE)&lt;br&gt;motor4.run(RELEASE)&lt;/font&gt;" style="rounded=0;whiteSpace=wrap;html=1;" vertex="1" parent="1">
          <mxGeometry x="520" y="80" width="145" height="60" as="geometry" />
        </mxCell>
        <mxCell id="ckIcHxlf3UzxfT3ee6Hz-64" value="" style="edgeStyle=orthogonalEdgeStyle;rounded=0;orthogonalLoop=1;jettySize=auto;html=1;" edge="1" parent="1" source="ckIcHxlf3UzxfT3ee6Hz-62" target="ckIcHxlf3UzxfT3ee6Hz-63">
          <mxGeometry relative="1" as="geometry" />
        </mxCell>
        <mxCell id="ckIcHxlf3UzxfT3ee6Hz-62" value="clear_turn" style="rounded=1;whiteSpace=wrap;html=1;" vertex="1" parent="1">
          <mxGeometry x="533" y="235" width="120" height="30" as="geometry" />
        </mxCell>
        <mxCell id="ckIcHxlf3UzxfT3ee6Hz-66" value="" style="edgeStyle=orthogonalEdgeStyle;rounded=0;orthogonalLoop=1;jettySize=auto;html=1;entryX=0.5;entryY=0;entryDx=0;entryDy=0;entryPerimeter=0;" edge="1" parent="1" source="ckIcHxlf3UzxfT3ee6Hz-63" target="ckIcHxlf3UzxfT3ee6Hz-141">
          <mxGeometry relative="1" as="geometry">
            <mxPoint x="592.4871794871794" y="346" as="targetPoint" />
          </mxGeometry>
        </mxCell>
        <mxCell id="ckIcHxlf3UzxfT3ee6Hz-63" value="&lt;font style=&quot;font-size: 10px&quot;&gt;EEPROM.write(0,0)&lt;br&gt;EEPROM.write(1,0)&lt;/font&gt;" style="rounded=0;whiteSpace=wrap;html=1;" vertex="1" parent="1">
          <mxGeometry x="525.5" y="290" width="135" height="30" as="geometry" />
        </mxCell>
        <mxCell id="ckIcHxlf3UzxfT3ee6Hz-72" value="" style="edgeStyle=orthogonalEdgeStyle;rounded=0;orthogonalLoop=1;jettySize=auto;html=1;fontSize=9;" edge="1" parent="1" source="ckIcHxlf3UzxfT3ee6Hz-67" target="ckIcHxlf3UzxfT3ee6Hz-71">
          <mxGeometry relative="1" as="geometry" />
        </mxCell>
        <mxCell id="ckIcHxlf3UzxfT3ee6Hz-67" value="humi_on_off(int humi_on)" style="rounded=1;whiteSpace=wrap;html=1;" vertex="1" parent="1">
          <mxGeometry x="680" y="20" width="150" height="30" as="geometry" />
        </mxCell>
        <mxCell id="ckIcHxlf3UzxfT3ee6Hz-73" style="edgeStyle=orthogonalEdgeStyle;rounded=0;orthogonalLoop=1;jettySize=auto;html=1;exitX=1;exitY=0.5;exitDx=0;exitDy=0;exitPerimeter=0;fontSize=9;" edge="1" parent="1" source="ckIcHxlf3UzxfT3ee6Hz-71">
          <mxGeometry relative="1" as="geometry">
            <mxPoint x="820" y="160" as="targetPoint" />
          </mxGeometry>
        </mxCell>
        <mxCell id="ckIcHxlf3UzxfT3ee6Hz-74" style="edgeStyle=orthogonalEdgeStyle;rounded=0;orthogonalLoop=1;jettySize=auto;html=1;exitX=0;exitY=0.5;exitDx=0;exitDy=0;exitPerimeter=0;fontSize=9;" edge="1" parent="1" source="ckIcHxlf3UzxfT3ee6Hz-71">
          <mxGeometry relative="1" as="geometry">
            <mxPoint x="690" y="160" as="targetPoint" />
          </mxGeometry>
        </mxCell>
        <mxCell id="ckIcHxlf3UzxfT3ee6Hz-71" value="IS&lt;br&gt;humi_on ==1&lt;br&gt;?" style="strokeWidth=2;html=1;shape=mxgraph.flowchart.decision;whiteSpace=wrap;labelBackgroundColor=#FFFFFF;fontSize=9;" vertex="1" parent="1">
          <mxGeometry x="710" y="72" width="90" height="90" as="geometry" />
        </mxCell>
        <mxCell id="ckIcHxlf3UzxfT3ee6Hz-75" value="Y" style="text;html=1;strokeColor=none;fillColor=none;align=center;verticalAlign=middle;whiteSpace=wrap;rounded=0;" vertex="1" parent="1">
          <mxGeometry x="779" y="94" width="60" height="30" as="geometry" />
        </mxCell>
        <mxCell id="ckIcHxlf3UzxfT3ee6Hz-76" value="N" style="text;html=1;strokeColor=none;fillColor=none;align=center;verticalAlign=middle;whiteSpace=wrap;rounded=0;" vertex="1" parent="1">
          <mxGeometry x="670" y="94" width="60" height="30" as="geometry" />
        </mxCell>
        <mxCell id="ckIcHxlf3UzxfT3ee6Hz-80" value="" style="edgeStyle=orthogonalEdgeStyle;rounded=0;orthogonalLoop=1;jettySize=auto;html=1;fontSize=10;entryX=0.5;entryY=0;entryDx=0;entryDy=0;entryPerimeter=0;" edge="1" parent="1" source="ckIcHxlf3UzxfT3ee6Hz-77" target="ckIcHxlf3UzxfT3ee6Hz-143">
          <mxGeometry relative="1" as="geometry">
            <mxPoint x="689.7499999999998" y="245" as="targetPoint" />
          </mxGeometry>
        </mxCell>
        <mxCell id="ckIcHxlf3UzxfT3ee6Hz-77" value="&lt;font style=&quot;font-size: 10px&quot;&gt;digital&lt;br&gt;Write&lt;br&gt;(humi,&lt;br&gt;HIGH)&lt;/font&gt;" style="rounded=0;whiteSpace=wrap;html=1;" vertex="1" parent="1">
          <mxGeometry x="665" y="162" width="49.5" height="58" as="geometry" />
        </mxCell>
        <mxCell id="ckIcHxlf3UzxfT3ee6Hz-82" value="" style="edgeStyle=orthogonalEdgeStyle;rounded=0;orthogonalLoop=1;jettySize=auto;html=1;fontSize=10;entryX=0.5;entryY=0;entryDx=0;entryDy=0;entryPerimeter=0;" edge="1" parent="1" source="ckIcHxlf3UzxfT3ee6Hz-78" target="ckIcHxlf3UzxfT3ee6Hz-144">
          <mxGeometry relative="1" as="geometry">
            <mxPoint x="814.25" y="245" as="targetPoint" />
          </mxGeometry>
        </mxCell>
        <mxCell id="ckIcHxlf3UzxfT3ee6Hz-78" value="&lt;font style=&quot;font-size: 10px&quot;&gt;digital&lt;br&gt;Write&lt;br&gt;(humi,&lt;br&gt;LOW)&lt;/font&gt;" style="rounded=0;whiteSpace=wrap;html=1;" vertex="1" parent="1">
          <mxGeometry x="789.5" y="162" width="49.5" height="58" as="geometry" />
        </mxCell>
        <mxCell id="ckIcHxlf3UzxfT3ee6Hz-112" value="" style="edgeStyle=orthogonalEdgeStyle;rounded=0;orthogonalLoop=1;jettySize=auto;html=1;fontSize=10;entryX=0.5;entryY=0;entryDx=0;entryDy=0;entryPerimeter=0;" edge="1" parent="1" source="ckIcHxlf3UzxfT3ee6Hz-83" target="ckIcHxlf3UzxfT3ee6Hz-99">
          <mxGeometry relative="1" as="geometry">
            <mxPoint x="755" y="375" as="targetPoint" />
          </mxGeometry>
        </mxCell>
        <mxCell id="ckIcHxlf3UzxfT3ee6Hz-83" value="uv_on_off(int uv_on)" style="rounded=1;whiteSpace=wrap;html=1;" vertex="1" parent="1">
          <mxGeometry x="680" y="280" width="150" height="30" as="geometry" />
        </mxCell>
        <mxCell id="ckIcHxlf3UzxfT3ee6Hz-99" value="IS&lt;br&gt;humi_on ==1&lt;br&gt;?" style="strokeWidth=2;html=1;shape=mxgraph.flowchart.decision;whiteSpace=wrap;labelBackgroundColor=#FFFFFF;fontSize=9;" vertex="1" parent="1">
          <mxGeometry x="710" y="340" width="90" height="90" as="geometry" />
        </mxCell>
        <mxCell id="ckIcHxlf3UzxfT3ee6Hz-100" value="N" style="text;html=1;strokeColor=none;fillColor=none;align=center;verticalAlign=middle;whiteSpace=wrap;rounded=0;" vertex="1" parent="1">
          <mxGeometry x="670" y="352" width="60" height="30" as="geometry" />
        </mxCell>
        <mxCell id="ckIcHxlf3UzxfT3ee6Hz-101" value="Y" style="text;html=1;strokeColor=none;fillColor=none;align=center;verticalAlign=middle;whiteSpace=wrap;rounded=0;" vertex="1" parent="1">
          <mxGeometry x="779" y="352" width="60" height="30" as="geometry" />
        </mxCell>
        <mxCell id="ckIcHxlf3UzxfT3ee6Hz-102" style="edgeStyle=orthogonalEdgeStyle;rounded=0;orthogonalLoop=1;jettySize=auto;html=1;exitX=1;exitY=0.5;exitDx=0;exitDy=0;exitPerimeter=0;fontSize=9;" edge="1" source="ckIcHxlf3UzxfT3ee6Hz-99" parent="1">
          <mxGeometry relative="1" as="geometry">
            <mxPoint x="819.9999999999998" y="418" as="targetPoint" />
          </mxGeometry>
        </mxCell>
        <mxCell id="ckIcHxlf3UzxfT3ee6Hz-103" style="edgeStyle=orthogonalEdgeStyle;rounded=0;orthogonalLoop=1;jettySize=auto;html=1;exitX=0;exitY=0.5;exitDx=0;exitDy=0;exitPerimeter=0;fontSize=9;" edge="1" source="ckIcHxlf3UzxfT3ee6Hz-99" parent="1">
          <mxGeometry relative="1" as="geometry">
            <mxPoint x="690" y="418" as="targetPoint" />
          </mxGeometry>
        </mxCell>
        <mxCell id="ckIcHxlf3UzxfT3ee6Hz-104" value="&lt;font style=&quot;font-size: 10px&quot;&gt;digital&lt;br&gt;Write&lt;br&gt;(uv,&lt;br&gt;HIGH)&lt;/font&gt;" style="rounded=0;whiteSpace=wrap;html=1;" vertex="1" parent="1">
          <mxGeometry x="665" y="420" width="49.5" height="58" as="geometry" />
        </mxCell>
        <mxCell id="ckIcHxlf3UzxfT3ee6Hz-105" value="&lt;font style=&quot;font-size: 10px&quot;&gt;digital&lt;br&gt;Write&lt;br&gt;(uv,&lt;br&gt;LOW)&lt;/font&gt;" style="rounded=0;whiteSpace=wrap;html=1;" vertex="1" parent="1">
          <mxGeometry x="789.5" y="420" width="49.5" height="58" as="geometry" />
        </mxCell>
        <mxCell id="ckIcHxlf3UzxfT3ee6Hz-106" value="" style="edgeStyle=orthogonalEdgeStyle;rounded=0;orthogonalLoop=1;jettySize=auto;html=1;fontSize=10;entryX=0.5;entryY=0;entryDx=0;entryDy=0;entryPerimeter=0;" edge="1" source="ckIcHxlf3UzxfT3ee6Hz-104" target="ckIcHxlf3UzxfT3ee6Hz-145" parent="1">
          <mxGeometry relative="1" as="geometry">
            <mxPoint x="689.7499999999998" y="503" as="targetPoint" />
          </mxGeometry>
        </mxCell>
        <mxCell id="ckIcHxlf3UzxfT3ee6Hz-107" value="" style="edgeStyle=orthogonalEdgeStyle;rounded=0;orthogonalLoop=1;jettySize=auto;html=1;fontSize=10;entryX=0.5;entryY=0;entryDx=0;entryDy=0;entryPerimeter=0;" edge="1" source="ckIcHxlf3UzxfT3ee6Hz-105" target="ckIcHxlf3UzxfT3ee6Hz-146" parent="1">
          <mxGeometry relative="1" as="geometry">
            <mxPoint x="814.25" y="503" as="targetPoint" />
          </mxGeometry>
        </mxCell>
        <mxCell id="ckIcHxlf3UzxfT3ee6Hz-118" value="" style="edgeStyle=orthogonalEdgeStyle;rounded=0;orthogonalLoop=1;jettySize=auto;html=1;fontSize=10;" edge="1" parent="1" source="ckIcHxlf3UzxfT3ee6Hz-115" target="ckIcHxlf3UzxfT3ee6Hz-117">
          <mxGeometry relative="1" as="geometry" />
        </mxCell>
        <mxCell id="ckIcHxlf3UzxfT3ee6Hz-115" value="&lt;font style=&quot;font-size: 10px&quot;&gt;command = bt_serial.read()&lt;/font&gt;" style="rounded=0;whiteSpace=wrap;html=1;" vertex="1" parent="1">
          <mxGeometry x="276" y="430" width="135" height="30" as="geometry" />
        </mxCell>
        <mxCell id="ckIcHxlf3UzxfT3ee6Hz-126" value="" style="edgeStyle=orthogonalEdgeStyle;rounded=0;orthogonalLoop=1;jettySize=auto;html=1;fontSize=10;" edge="1" parent="1" source="ckIcHxlf3UzxfT3ee6Hz-117" target="ckIcHxlf3UzxfT3ee6Hz-120">
          <mxGeometry relative="1" as="geometry" />
        </mxCell>
        <mxCell id="ckIcHxlf3UzxfT3ee6Hz-117" value="&lt;font style=&quot;font-size: 10px&quot;&gt;check_sanitize&lt;/font&gt;" style="shape=process;whiteSpace=wrap;html=1;backgroundOutline=1;" vertex="1" parent="1">
          <mxGeometry x="278.5" y="486" width="130" height="30" as="geometry" />
        </mxCell>
        <mxCell id="ckIcHxlf3UzxfT3ee6Hz-132" style="edgeStyle=orthogonalEdgeStyle;rounded=0;orthogonalLoop=1;jettySize=auto;html=1;exitX=1;exitY=0.5;exitDx=0;exitDy=0;exitPerimeter=0;fontSize=10;" edge="1" parent="1" source="ckIcHxlf3UzxfT3ee6Hz-120" target="ckIcHxlf3UzxfT3ee6Hz-163">
          <mxGeometry relative="1" as="geometry">
            <mxPoint x="420" y="650" as="targetPoint" />
          </mxGeometry>
        </mxCell>
        <mxCell id="ckIcHxlf3UzxfT3ee6Hz-133" style="edgeStyle=orthogonalEdgeStyle;rounded=0;orthogonalLoop=1;jettySize=auto;html=1;exitX=0;exitY=0.5;exitDx=0;exitDy=0;exitPerimeter=0;fontSize=10;entryX=0.5;entryY=0;entryDx=0;entryDy=0;" edge="1" parent="1" source="ckIcHxlf3UzxfT3ee6Hz-120" target="ckIcHxlf3UzxfT3ee6Hz-149">
          <mxGeometry relative="1" as="geometry">
            <mxPoint x="270" y="650" as="targetPoint" />
          </mxGeometry>
        </mxCell>
        <mxCell id="ckIcHxlf3UzxfT3ee6Hz-120" value="IS&lt;br&gt;command != &#39;D&#39;&lt;br&gt;?" style="strokeWidth=2;html=1;shape=mxgraph.flowchart.decision;whiteSpace=wrap;labelBackgroundColor=#FFFFFF;fontSize=9;" vertex="1" parent="1">
          <mxGeometry x="296" y="540" width="95" height="100" as="geometry" />
        </mxCell>
        <mxCell id="ckIcHxlf3UzxfT3ee6Hz-134" value="Y" style="text;html=1;strokeColor=none;fillColor=none;align=center;verticalAlign=middle;whiteSpace=wrap;rounded=0;" vertex="1" parent="1">
          <mxGeometry x="376" y="569" width="60" height="30" as="geometry" />
        </mxCell>
        <mxCell id="ckIcHxlf3UzxfT3ee6Hz-135" value="N" style="text;html=1;strokeColor=none;fillColor=none;align=center;verticalAlign=middle;whiteSpace=wrap;rounded=0;" vertex="1" parent="1">
          <mxGeometry x="255" y="569" width="60" height="30" as="geometry" />
        </mxCell>
        <mxCell id="ckIcHxlf3UzxfT3ee6Hz-138" value="START" style="strokeWidth=2;html=1;shape=mxgraph.flowchart.terminator;whiteSpace=wrap;labelBackgroundColor=#FFFFFF;fontSize=10;" vertex="1" parent="1">
          <mxGeometry x="160" y="30" width="100" height="32" as="geometry" />
        </mxCell>
        <mxCell id="ckIcHxlf3UzxfT3ee6Hz-139" value="STOP" style="strokeWidth=2;html=1;shape=mxgraph.flowchart.terminator;whiteSpace=wrap;labelBackgroundColor=#FFFFFF;fontSize=10;" vertex="1" parent="1">
          <mxGeometry x="35" y="487" width="100" height="33" as="geometry" />
        </mxCell>
        <mxCell id="ckIcHxlf3UzxfT3ee6Hz-140" value="STOP" style="strokeWidth=2;html=1;shape=mxgraph.flowchart.terminator;whiteSpace=wrap;labelBackgroundColor=#FFFFFF;fontSize=10;" vertex="1" parent="1">
          <mxGeometry x="380" y="382" width="100" height="28" as="geometry" />
        </mxCell>
        <mxCell id="ckIcHxlf3UzxfT3ee6Hz-141" value="STOP" style="strokeWidth=2;html=1;shape=mxgraph.flowchart.terminator;whiteSpace=wrap;labelBackgroundColor=#FFFFFF;fontSize=10;" vertex="1" parent="1">
          <mxGeometry x="543" y="354" width="100" height="26" as="geometry" />
        </mxCell>
        <mxCell id="ckIcHxlf3UzxfT3ee6Hz-142" value="STOP" style="strokeWidth=2;html=1;shape=mxgraph.flowchart.terminator;whiteSpace=wrap;labelBackgroundColor=#FFFFFF;fontSize=10;" vertex="1" parent="1">
          <mxGeometry x="542.5" y="168" width="100" height="22" as="geometry" />
        </mxCell>
        <mxCell id="ckIcHxlf3UzxfT3ee6Hz-143" value="STOP" style="strokeWidth=2;html=1;shape=mxgraph.flowchart.terminator;whiteSpace=wrap;labelBackgroundColor=#FFFFFF;fontSize=10;" vertex="1" parent="1">
          <mxGeometry x="659.5" y="244" width="60" height="27" as="geometry" />
        </mxCell>
        <mxCell id="ckIcHxlf3UzxfT3ee6Hz-144" value="STOP" style="strokeWidth=2;html=1;shape=mxgraph.flowchart.terminator;whiteSpace=wrap;labelBackgroundColor=#FFFFFF;fontSize=10;" vertex="1" parent="1">
          <mxGeometry x="784" y="244" width="60" height="27" as="geometry" />
        </mxCell>
        <mxCell id="ckIcHxlf3UzxfT3ee6Hz-145" value="STOP" style="strokeWidth=2;html=1;shape=mxgraph.flowchart.terminator;whiteSpace=wrap;labelBackgroundColor=#FFFFFF;fontSize=10;" vertex="1" parent="1">
          <mxGeometry x="659.5" y="502" width="60" height="27" as="geometry" />
        </mxCell>
        <mxCell id="ckIcHxlf3UzxfT3ee6Hz-146" value="STOP" style="strokeWidth=2;html=1;shape=mxgraph.flowchart.terminator;whiteSpace=wrap;labelBackgroundColor=#FFFFFF;fontSize=10;" vertex="1" parent="1">
          <mxGeometry x="784" y="502" width="60" height="27" as="geometry" />
        </mxCell>
        <mxCell id="ckIcHxlf3UzxfT3ee6Hz-162" value="" style="edgeStyle=orthogonalEdgeStyle;rounded=0;orthogonalLoop=1;jettySize=auto;html=1;fontSize=10;" edge="1" parent="1" source="ckIcHxlf3UzxfT3ee6Hz-149" target="ckIcHxlf3UzxfT3ee6Hz-161">
          <mxGeometry relative="1" as="geometry" />
        </mxCell>
        <mxCell id="ckIcHxlf3UzxfT3ee6Hz-149" value="disconnected" style="shape=process;whiteSpace=wrap;html=1;backgroundOutline=1;" vertex="1" parent="1">
          <mxGeometry x="220" y="640" width="95" height="30" as="geometry" />
        </mxCell>
        <mxCell id="ckIcHxlf3UzxfT3ee6Hz-157" value="a" style="ellipse;whiteSpace=wrap;html=1;aspect=fixed;labelBackgroundColor=#FFFFFF;fontSize=10;" vertex="1" parent="1">
          <mxGeometry x="260" y="390" width="30" height="30" as="geometry" />
        </mxCell>
        <mxCell id="ckIcHxlf3UzxfT3ee6Hz-158" style="edgeStyle=orthogonalEdgeStyle;rounded=0;orthogonalLoop=1;jettySize=auto;html=1;exitX=1;exitY=0.5;exitDx=0;exitDy=0;fontSize=10;" edge="1" source="ckIcHxlf3UzxfT3ee6Hz-157" parent="1">
          <mxGeometry relative="1" as="geometry">
            <mxPoint x="330" y="405.0338983050848" as="targetPoint" />
          </mxGeometry>
        </mxCell>
        <mxCell id="ckIcHxlf3UzxfT3ee6Hz-161" value="a" style="ellipse;whiteSpace=wrap;html=1;aspect=fixed;labelBackgroundColor=#FFFFFF;fontSize=10;" vertex="1" parent="1">
          <mxGeometry x="252.5" y="687" width="30" height="30" as="geometry" />
        </mxCell>
        <mxCell id="ckIcHxlf3UzxfT3ee6Hz-164" style="edgeStyle=orthogonalEdgeStyle;rounded=0;orthogonalLoop=1;jettySize=auto;html=1;exitX=1;exitY=0.5;exitDx=0;exitDy=0;exitPerimeter=0;fontSize=8;entryX=0.5;entryY=0;entryDx=0;entryDy=0;" edge="1" parent="1" source="ckIcHxlf3UzxfT3ee6Hz-163" target="ckIcHxlf3UzxfT3ee6Hz-167">
          <mxGeometry relative="1" as="geometry">
            <mxPoint x="480" y="720" as="targetPoint" />
          </mxGeometry>
        </mxCell>
        <mxCell id="ckIcHxlf3UzxfT3ee6Hz-170" style="edgeStyle=orthogonalEdgeStyle;rounded=0;orthogonalLoop=1;jettySize=auto;html=1;exitX=0;exitY=0.5;exitDx=0;exitDy=0;exitPerimeter=0;fontSize=7;entryX=0.5;entryY=0;entryDx=0;entryDy=0;entryPerimeter=0;" edge="1" parent="1" source="ckIcHxlf3UzxfT3ee6Hz-163" target="ckIcHxlf3UzxfT3ee6Hz-172">
          <mxGeometry relative="1" as="geometry">
            <mxPoint x="350" y="720" as="targetPoint" />
          </mxGeometry>
        </mxCell>
        <mxCell id="ckIcHxlf3UzxfT3ee6Hz-163" value="&lt;font style=&quot;font-size: 7px&quot;&gt;IS&lt;br&gt;&lt;font style=&quot;font-size: 7px&quot;&gt;command == &#39;C&#39;&lt;br&gt;&lt;/font&gt;?&lt;/font&gt;" style="strokeWidth=2;html=1;shape=mxgraph.flowchart.decision;whiteSpace=wrap;labelBackgroundColor=#FFFFFF;fontSize=9;" vertex="1" parent="1">
          <mxGeometry x="370" y="617" width="85" height="100" as="geometry" />
        </mxCell>
        <mxCell id="ckIcHxlf3UzxfT3ee6Hz-165" value="Y" style="text;html=1;strokeColor=none;fillColor=none;align=center;verticalAlign=middle;whiteSpace=wrap;rounded=0;" vertex="1" parent="1">
          <mxGeometry x="435" y="646" width="60" height="30" as="geometry" />
        </mxCell>
        <mxCell id="ckIcHxlf3UzxfT3ee6Hz-169" value="" style="edgeStyle=orthogonalEdgeStyle;rounded=0;orthogonalLoop=1;jettySize=auto;html=1;fontSize=10;" edge="1" parent="1" source="ckIcHxlf3UzxfT3ee6Hz-167" target="ckIcHxlf3UzxfT3ee6Hz-168">
          <mxGeometry relative="1" as="geometry" />
        </mxCell>
        <mxCell id="ckIcHxlf3UzxfT3ee6Hz-167" value="&lt;font style=&quot;font-size: 10px&quot;&gt;sanitize = &#39;Y&#39;&lt;/font&gt;" style="rounded=0;whiteSpace=wrap;html=1;" vertex="1" parent="1">
          <mxGeometry x="437.5" y="700" width="62.5" height="20" as="geometry" />
        </mxCell>
        <mxCell id="ckIcHxlf3UzxfT3ee6Hz-168" value="a" style="ellipse;whiteSpace=wrap;html=1;aspect=fixed;labelBackgroundColor=#FFFFFF;fontSize=10;" vertex="1" parent="1">
          <mxGeometry x="453.5" y="740" width="30" height="30" as="geometry" />
        </mxCell>
        <mxCell id="ckIcHxlf3UzxfT3ee6Hz-171" value="N" style="text;html=1;strokeColor=none;fillColor=none;align=center;verticalAlign=middle;whiteSpace=wrap;rounded=0;" vertex="1" parent="1">
          <mxGeometry x="331" y="646" width="60" height="30" as="geometry" />
        </mxCell>
        <mxCell id="ckIcHxlf3UzxfT3ee6Hz-173" style="edgeStyle=orthogonalEdgeStyle;rounded=0;orthogonalLoop=1;jettySize=auto;html=1;exitX=1;exitY=0.5;exitDx=0;exitDy=0;exitPerimeter=0;fontSize=7;entryX=0.572;entryY=-0.019;entryDx=0;entryDy=0;entryPerimeter=0;" edge="1" parent="1" source="ckIcHxlf3UzxfT3ee6Hz-172" target="ckIcHxlf3UzxfT3ee6Hz-175">
          <mxGeometry relative="1" as="geometry">
            <mxPoint x="410" y="780" as="targetPoint" />
          </mxGeometry>
        </mxCell>
        <mxCell id="ckIcHxlf3UzxfT3ee6Hz-178" style="edgeStyle=orthogonalEdgeStyle;rounded=0;orthogonalLoop=1;jettySize=auto;html=1;exitX=0;exitY=0.5;exitDx=0;exitDy=0;exitPerimeter=0;fontSize=7;entryX=0.5;entryY=0;entryDx=0;entryDy=0;entryPerimeter=0;" edge="1" parent="1" source="ckIcHxlf3UzxfT3ee6Hz-172" target="ckIcHxlf3UzxfT3ee6Hz-181">
          <mxGeometry relative="1" as="geometry">
            <mxPoint x="280" y="790" as="targetPoint" />
          </mxGeometry>
        </mxCell>
        <mxCell id="ckIcHxlf3UzxfT3ee6Hz-172" value="&lt;font style=&quot;font-size: 7px&quot;&gt;IS&lt;br&gt;&lt;font style=&quot;font-size: 7px&quot;&gt;command == &#39;T&#39;&lt;br&gt;&lt;/font&gt;?&lt;/font&gt;" style="strokeWidth=2;html=1;shape=mxgraph.flowchart.decision;whiteSpace=wrap;labelBackgroundColor=#FFFFFF;fontSize=9;" vertex="1" parent="1">
          <mxGeometry x="306" y="687" width="85" height="100" as="geometry" />
        </mxCell>
        <mxCell id="ckIcHxlf3UzxfT3ee6Hz-174" value="Y" style="text;html=1;strokeColor=none;fillColor=none;align=center;verticalAlign=middle;whiteSpace=wrap;rounded=0;" vertex="1" parent="1">
          <mxGeometry x="372" y="715" width="60" height="30" as="geometry" />
        </mxCell>
        <mxCell id="ckIcHxlf3UzxfT3ee6Hz-177" value="" style="edgeStyle=orthogonalEdgeStyle;rounded=0;orthogonalLoop=1;jettySize=auto;html=1;fontSize=7;" edge="1" parent="1" source="ckIcHxlf3UzxfT3ee6Hz-175" target="ckIcHxlf3UzxfT3ee6Hz-176">
          <mxGeometry relative="1" as="geometry" />
        </mxCell>
        <mxCell id="ckIcHxlf3UzxfT3ee6Hz-175" value="&lt;font style=&quot;font-size: 10px&quot;&gt;sanitize = &#39;N&#39;&lt;/font&gt;" style="rounded=0;whiteSpace=wrap;html=1;" vertex="1" parent="1">
          <mxGeometry x="376" y="760" width="62.5" height="20" as="geometry" />
        </mxCell>
        <mxCell id="ckIcHxlf3UzxfT3ee6Hz-176" value="a" style="ellipse;whiteSpace=wrap;html=1;aspect=fixed;labelBackgroundColor=#FFFFFF;fontSize=10;" vertex="1" parent="1">
          <mxGeometry x="392.25" y="800" width="30" height="30" as="geometry" />
        </mxCell>
        <mxCell id="ckIcHxlf3UzxfT3ee6Hz-179" value="N" style="text;html=1;strokeColor=none;fillColor=none;align=center;verticalAlign=middle;whiteSpace=wrap;rounded=0;" vertex="1" parent="1">
          <mxGeometry x="270" y="715" width="60" height="30" as="geometry" />
        </mxCell>
        <mxCell id="ckIcHxlf3UzxfT3ee6Hz-182" style="edgeStyle=orthogonalEdgeStyle;rounded=0;orthogonalLoop=1;jettySize=auto;html=1;exitX=1;exitY=0.5;exitDx=0;exitDy=0;exitPerimeter=0;fontSize=7;entryX=0.5;entryY=0;entryDx=0;entryDy=0;" edge="1" parent="1" source="ckIcHxlf3UzxfT3ee6Hz-181" target="ckIcHxlf3UzxfT3ee6Hz-184">
          <mxGeometry relative="1" as="geometry">
            <mxPoint x="370" y="870" as="targetPoint" />
          </mxGeometry>
        </mxCell>
        <mxCell id="ckIcHxlf3UzxfT3ee6Hz-187" style="edgeStyle=orthogonalEdgeStyle;rounded=0;orthogonalLoop=1;jettySize=auto;html=1;exitX=0;exitY=0.5;exitDx=0;exitDy=0;exitPerimeter=0;fontSize=10;entryX=0.5;entryY=0;entryDx=0;entryDy=0;entryPerimeter=0;" edge="1" parent="1" source="ckIcHxlf3UzxfT3ee6Hz-181" target="ckIcHxlf3UzxfT3ee6Hz-189">
          <mxGeometry relative="1" as="geometry">
            <mxPoint x="230" y="870" as="targetPoint" />
          </mxGeometry>
        </mxCell>
        <mxCell id="ckIcHxlf3UzxfT3ee6Hz-181" value="&lt;font style=&quot;font-size: 7px&quot;&gt;IS&lt;br&gt;&lt;font style=&quot;font-size: 7px&quot;&gt;command == &#39;H&#39;&lt;br&gt;&lt;/font&gt;?&lt;/font&gt;" style="strokeWidth=2;html=1;shape=mxgraph.flowchart.decision;whiteSpace=wrap;labelBackgroundColor=#FFFFFF;fontSize=9;" vertex="1" parent="1">
          <mxGeometry x="252.5" y="760" width="85" height="100" as="geometry" />
        </mxCell>
        <mxCell id="ckIcHxlf3UzxfT3ee6Hz-183" value="Y" style="text;html=1;strokeColor=none;fillColor=none;align=center;verticalAlign=middle;whiteSpace=wrap;rounded=0;" vertex="1" parent="1">
          <mxGeometry x="320" y="787" width="60" height="30" as="geometry" />
        </mxCell>
        <mxCell id="ckIcHxlf3UzxfT3ee6Hz-186" value="" style="edgeStyle=orthogonalEdgeStyle;rounded=0;orthogonalLoop=1;jettySize=auto;html=1;fontSize=10;" edge="1" parent="1" source="ckIcHxlf3UzxfT3ee6Hz-184" target="ckIcHxlf3UzxfT3ee6Hz-185">
          <mxGeometry relative="1" as="geometry" />
        </mxCell>
        <mxCell id="ckIcHxlf3UzxfT3ee6Hz-184" value="&lt;font style=&quot;font-size: 10px&quot;&gt;humi_on_off(2)&lt;/font&gt;" style="shape=process;whiteSpace=wrap;html=1;backgroundOutline=1;" vertex="1" parent="1">
          <mxGeometry x="319.5" y="840" width="91.5" height="30" as="geometry" />
        </mxCell>
        <mxCell id="ckIcHxlf3UzxfT3ee6Hz-185" value="a" style="ellipse;whiteSpace=wrap;html=1;aspect=fixed;labelBackgroundColor=#FFFFFF;fontSize=10;" vertex="1" parent="1">
          <mxGeometry x="350" y="890" width="30" height="30" as="geometry" />
        </mxCell>
        <mxCell id="ckIcHxlf3UzxfT3ee6Hz-188" value="N" style="text;html=1;strokeColor=none;fillColor=none;align=center;verticalAlign=middle;whiteSpace=wrap;rounded=0;" vertex="1" parent="1">
          <mxGeometry x="216" y="787" width="60" height="30" as="geometry" />
        </mxCell>
        <mxCell id="ckIcHxlf3UzxfT3ee6Hz-192" style="edgeStyle=orthogonalEdgeStyle;rounded=0;orthogonalLoop=1;jettySize=auto;html=1;exitX=1;exitY=0.5;exitDx=0;exitDy=0;exitPerimeter=0;fontSize=10;entryX=0.5;entryY=0;entryDx=0;entryDy=0;" edge="1" parent="1" source="ckIcHxlf3UzxfT3ee6Hz-189" target="ckIcHxlf3UzxfT3ee6Hz-190">
          <mxGeometry relative="1" as="geometry">
            <mxPoint x="300" y="910" as="targetPoint" />
          </mxGeometry>
        </mxCell>
        <mxCell id="ckIcHxlf3UzxfT3ee6Hz-195" style="edgeStyle=orthogonalEdgeStyle;rounded=0;orthogonalLoop=1;jettySize=auto;html=1;exitX=0;exitY=0.5;exitDx=0;exitDy=0;exitPerimeter=0;fontSize=10;entryX=0.5;entryY=0;entryDx=0;entryDy=0;entryPerimeter=0;" edge="1" parent="1" source="ckIcHxlf3UzxfT3ee6Hz-189" target="ckIcHxlf3UzxfT3ee6Hz-197">
          <mxGeometry relative="1" as="geometry">
            <mxPoint x="170" y="940" as="targetPoint" />
          </mxGeometry>
        </mxCell>
        <mxCell id="ckIcHxlf3UzxfT3ee6Hz-189" value="&lt;font style=&quot;font-size: 7px&quot;&gt;IS&lt;br&gt;&lt;font style=&quot;font-size: 7px&quot;&gt;command == &#39;I&#39;&lt;br&gt;&lt;/font&gt;?&lt;/font&gt;" style="strokeWidth=2;html=1;shape=mxgraph.flowchart.decision;whiteSpace=wrap;labelBackgroundColor=#FFFFFF;fontSize=9;" vertex="1" parent="1">
          <mxGeometry x="193.5" y="830" width="85" height="100" as="geometry" />
        </mxCell>
        <mxCell id="ckIcHxlf3UzxfT3ee6Hz-194" value="" style="edgeStyle=orthogonalEdgeStyle;rounded=0;orthogonalLoop=1;jettySize=auto;html=1;fontSize=10;" edge="1" parent="1" source="ckIcHxlf3UzxfT3ee6Hz-190" target="ckIcHxlf3UzxfT3ee6Hz-193">
          <mxGeometry relative="1" as="geometry" />
        </mxCell>
        <mxCell id="ckIcHxlf3UzxfT3ee6Hz-190" value="&lt;font style=&quot;font-size: 10px&quot;&gt;humi_on_off(1)&lt;/font&gt;" style="shape=process;whiteSpace=wrap;html=1;backgroundOutline=1;" vertex="1" parent="1">
          <mxGeometry x="258.5" y="920" width="91.5" height="30" as="geometry" />
        </mxCell>
        <mxCell id="ckIcHxlf3UzxfT3ee6Hz-193" value="a" style="ellipse;whiteSpace=wrap;html=1;aspect=fixed;labelBackgroundColor=#FFFFFF;fontSize=10;" vertex="1" parent="1">
          <mxGeometry x="289" y="975" width="30" height="30" as="geometry" />
        </mxCell>
        <mxCell id="ckIcHxlf3UzxfT3ee6Hz-196" value="N" style="text;html=1;strokeColor=none;fillColor=none;align=center;verticalAlign=middle;whiteSpace=wrap;rounded=0;" vertex="1" parent="1">
          <mxGeometry x="153" y="858" width="60" height="30" as="geometry" />
        </mxCell>
        <mxCell id="ckIcHxlf3UzxfT3ee6Hz-199" style="edgeStyle=orthogonalEdgeStyle;rounded=0;orthogonalLoop=1;jettySize=auto;html=1;exitX=1;exitY=0.5;exitDx=0;exitDy=0;exitPerimeter=0;fontSize=10;" edge="1" parent="1" source="ckIcHxlf3UzxfT3ee6Hz-197" target="ckIcHxlf3UzxfT3ee6Hz-200">
          <mxGeometry relative="1" as="geometry">
            <mxPoint x="220" y="980" as="targetPoint" />
          </mxGeometry>
        </mxCell>
        <mxCell id="ckIcHxlf3UzxfT3ee6Hz-204" style="edgeStyle=orthogonalEdgeStyle;rounded=0;orthogonalLoop=1;jettySize=auto;html=1;exitX=0;exitY=0.5;exitDx=0;exitDy=0;exitPerimeter=0;fontSize=10;entryX=0.5;entryY=0;entryDx=0;entryDy=0;" edge="1" parent="1" target="ckIcHxlf3UzxfT3ee6Hz-207">
          <mxGeometry relative="1" as="geometry">
            <mxPoint x="108" y="1029" as="targetPoint" />
            <mxPoint x="126" y="950" as="sourcePoint" />
          </mxGeometry>
        </mxCell>
        <mxCell id="ckIcHxlf3UzxfT3ee6Hz-197" value="&lt;font style=&quot;font-size: 7px&quot;&gt;IS&lt;br&gt;&lt;font style=&quot;font-size: 7px&quot;&gt;command == &#39;U&#39;&lt;br&gt;&lt;/font&gt;?&lt;/font&gt;" style="strokeWidth=2;html=1;shape=mxgraph.flowchart.decision;whiteSpace=wrap;labelBackgroundColor=#FFFFFF;fontSize=9;" vertex="1" parent="1">
          <mxGeometry x="128" y="900" width="85" height="100" as="geometry" />
        </mxCell>
        <mxCell id="ckIcHxlf3UzxfT3ee6Hz-198" value="Y" style="text;html=1;strokeColor=none;fillColor=none;align=center;verticalAlign=middle;whiteSpace=wrap;rounded=0;" vertex="1" parent="1">
          <mxGeometry x="265" y="858" width="60" height="30" as="geometry" />
        </mxCell>
        <mxCell id="ckIcHxlf3UzxfT3ee6Hz-203" value="" style="edgeStyle=orthogonalEdgeStyle;rounded=0;orthogonalLoop=1;jettySize=auto;html=1;fontSize=10;" edge="1" parent="1" source="ckIcHxlf3UzxfT3ee6Hz-200" target="ckIcHxlf3UzxfT3ee6Hz-202">
          <mxGeometry relative="1" as="geometry" />
        </mxCell>
        <mxCell id="ckIcHxlf3UzxfT3ee6Hz-200" value="&lt;font style=&quot;font-size: 10px&quot;&gt;uv_on_off(2)&lt;/font&gt;" style="shape=process;whiteSpace=wrap;html=1;backgroundOutline=1;" vertex="1" parent="1">
          <mxGeometry x="191" y="999" width="91.5" height="30" as="geometry" />
        </mxCell>
        <mxCell id="ckIcHxlf3UzxfT3ee6Hz-201" value="Y" style="text;html=1;strokeColor=none;fillColor=none;align=center;verticalAlign=middle;whiteSpace=wrap;rounded=0;" vertex="1" parent="1">
          <mxGeometry x="192" y="928" width="60" height="30" as="geometry" />
        </mxCell>
        <mxCell id="ckIcHxlf3UzxfT3ee6Hz-202" value="a" style="ellipse;whiteSpace=wrap;html=1;aspect=fixed;labelBackgroundColor=#FFFFFF;fontSize=10;" vertex="1" parent="1">
          <mxGeometry x="221" y="1055" width="30" height="30" as="geometry" />
        </mxCell>
        <mxCell id="ckIcHxlf3UzxfT3ee6Hz-205" value="N" style="text;html=1;strokeColor=none;fillColor=none;align=center;verticalAlign=middle;whiteSpace=wrap;rounded=0;" vertex="1" parent="1">
          <mxGeometry x="88" y="929" width="60" height="30" as="geometry" />
        </mxCell>
        <mxCell id="ckIcHxlf3UzxfT3ee6Hz-207" value="b" style="ellipse;whiteSpace=wrap;html=1;aspect=fixed;labelBackgroundColor=#FFFFFF;fontSize=10;" vertex="1" parent="1">
          <mxGeometry x="93" y="975" width="30" height="30" as="geometry" />
        </mxCell>
        <mxCell id="ckIcHxlf3UzxfT3ee6Hz-210" value="" style="edgeStyle=orthogonalEdgeStyle;rounded=0;orthogonalLoop=1;jettySize=auto;html=1;fontSize=10;" edge="1" parent="1" source="ckIcHxlf3UzxfT3ee6Hz-208" target="ckIcHxlf3UzxfT3ee6Hz-209">
          <mxGeometry relative="1" as="geometry" />
        </mxCell>
        <mxCell id="ckIcHxlf3UzxfT3ee6Hz-208" value="b" style="ellipse;whiteSpace=wrap;html=1;aspect=fixed;labelBackgroundColor=#FFFFFF;fontSize=10;" vertex="1" parent="1">
          <mxGeometry x="103" y="535" width="30" height="30" as="geometry" />
        </mxCell>
        <mxCell id="ckIcHxlf3UzxfT3ee6Hz-213" style="edgeStyle=orthogonalEdgeStyle;rounded=0;orthogonalLoop=1;jettySize=auto;html=1;exitX=1;exitY=0.5;exitDx=0;exitDy=0;exitPerimeter=0;fontSize=10;entryX=0.5;entryY=0;entryDx=0;entryDy=0;" edge="1" parent="1" source="ckIcHxlf3UzxfT3ee6Hz-209" target="ckIcHxlf3UzxfT3ee6Hz-211">
          <mxGeometry relative="1" as="geometry">
            <mxPoint x="180" y="690" as="targetPoint" />
          </mxGeometry>
        </mxCell>
        <mxCell id="ckIcHxlf3UzxfT3ee6Hz-215" style="edgeStyle=orthogonalEdgeStyle;rounded=0;orthogonalLoop=1;jettySize=auto;html=1;exitX=0;exitY=0.5;exitDx=0;exitDy=0;exitPerimeter=0;fontSize=10;entryX=0.5;entryY=0;entryDx=0;entryDy=0;" edge="1" parent="1" source="ckIcHxlf3UzxfT3ee6Hz-209" target="ckIcHxlf3UzxfT3ee6Hz-212">
          <mxGeometry relative="1" as="geometry">
            <mxPoint x="40" y="660" as="targetPoint" />
          </mxGeometry>
        </mxCell>
        <mxCell id="ckIcHxlf3UzxfT3ee6Hz-209" value="&lt;font style=&quot;font-size: 7px&quot;&gt;IS&lt;br&gt;&lt;font style=&quot;font-size: 7px&quot;&gt;command == &#39;V&#39;&lt;br&gt;&lt;/font&gt;?&lt;/font&gt;" style="strokeWidth=2;html=1;shape=mxgraph.flowchart.decision;whiteSpace=wrap;labelBackgroundColor=#FFFFFF;fontSize=9;" vertex="1" parent="1">
          <mxGeometry x="75" y="591" width="85" height="100" as="geometry" />
        </mxCell>
        <mxCell id="ckIcHxlf3UzxfT3ee6Hz-218" value="" style="edgeStyle=orthogonalEdgeStyle;rounded=0;orthogonalLoop=1;jettySize=auto;html=1;fontSize=10;" edge="1" parent="1" source="ckIcHxlf3UzxfT3ee6Hz-211" target="ckIcHxlf3UzxfT3ee6Hz-217">
          <mxGeometry relative="1" as="geometry" />
        </mxCell>
        <mxCell id="ckIcHxlf3UzxfT3ee6Hz-211" value="&lt;font style=&quot;font-size: 10px&quot;&gt;uv_on_off(1)&lt;/font&gt;" style="shape=process;whiteSpace=wrap;html=1;backgroundOutline=1;" vertex="1" parent="1">
          <mxGeometry x="137.25" y="685" width="91.5" height="30" as="geometry" />
        </mxCell>
        <mxCell id="ckIcHxlf3UzxfT3ee6Hz-220" value="" style="edgeStyle=orthogonalEdgeStyle;rounded=0;orthogonalLoop=1;jettySize=auto;html=1;fontSize=10;" edge="1" parent="1" source="ckIcHxlf3UzxfT3ee6Hz-212" target="ckIcHxlf3UzxfT3ee6Hz-219">
          <mxGeometry relative="1" as="geometry" />
        </mxCell>
        <mxCell id="ckIcHxlf3UzxfT3ee6Hz-212" value="&lt;span style=&quot;font-size: 10px&quot;&gt;movement&lt;/span&gt;" style="shape=process;whiteSpace=wrap;html=1;backgroundOutline=1;" vertex="1" parent="1">
          <mxGeometry x="12.5" y="670" width="77.5" height="30" as="geometry" />
        </mxCell>
        <mxCell id="ckIcHxlf3UzxfT3ee6Hz-214" value="Y" style="text;html=1;strokeColor=none;fillColor=none;align=center;verticalAlign=middle;whiteSpace=wrap;rounded=0;" vertex="1" parent="1">
          <mxGeometry x="140.5" y="617" width="60" height="30" as="geometry" />
        </mxCell>
        <mxCell id="ckIcHxlf3UzxfT3ee6Hz-216" value="N" style="text;html=1;strokeColor=none;fillColor=none;align=center;verticalAlign=middle;whiteSpace=wrap;rounded=0;" vertex="1" parent="1">
          <mxGeometry x="33" y="618" width="60" height="30" as="geometry" />
        </mxCell>
        <mxCell id="ckIcHxlf3UzxfT3ee6Hz-217" value="a" style="ellipse;whiteSpace=wrap;html=1;aspect=fixed;labelBackgroundColor=#FFFFFF;fontSize=10;" vertex="1" parent="1">
          <mxGeometry x="168" y="740" width="30" height="30" as="geometry" />
        </mxCell>
        <mxCell id="ckIcHxlf3UzxfT3ee6Hz-219" value="a" style="ellipse;whiteSpace=wrap;html=1;aspect=fixed;labelBackgroundColor=#FFFFFF;fontSize=10;" vertex="1" parent="1">
          <mxGeometry x="36.25" y="730" width="30" height="30" as="geometry" />
        </mxCell>
        <mxCell id="ckIcHxlf3UzxfT3ee6Hz-223" value="" style="edgeStyle=orthogonalEdgeStyle;rounded=0;orthogonalLoop=1;jettySize=auto;html=1;fontSize=10;" edge="1" parent="1" source="ckIcHxlf3UzxfT3ee6Hz-221" target="ckIcHxlf3UzxfT3ee6Hz-222">
          <mxGeometry relative="1" as="geometry" />
        </mxCell>
        <mxCell id="ckIcHxlf3UzxfT3ee6Hz-221" value="check_sanitize&amp;nbsp;" style="rounded=1;whiteSpace=wrap;html=1;" vertex="1" parent="1">
          <mxGeometry x="590" y="575" width="150" height="30" as="geometry" />
        </mxCell>
        <mxCell id="ckIcHxlf3UzxfT3ee6Hz-224" style="edgeStyle=orthogonalEdgeStyle;rounded=0;orthogonalLoop=1;jettySize=auto;html=1;exitX=1;exitY=0.5;exitDx=0;exitDy=0;exitPerimeter=0;fontSize=10;entryX=0.5;entryY=0;entryDx=0;entryDy=0;" edge="1" parent="1" source="ckIcHxlf3UzxfT3ee6Hz-222" target="ckIcHxlf3UzxfT3ee6Hz-226">
          <mxGeometry relative="1" as="geometry">
            <mxPoint x="740" y="750" as="targetPoint" />
          </mxGeometry>
        </mxCell>
        <mxCell id="ckIcHxlf3UzxfT3ee6Hz-227" style="edgeStyle=orthogonalEdgeStyle;rounded=0;orthogonalLoop=1;jettySize=auto;html=1;exitX=0;exitY=0.5;exitDx=0;exitDy=0;exitPerimeter=0;fontSize=10;entryX=0.5;entryY=0;entryDx=0;entryDy=0;" edge="1" parent="1" source="ckIcHxlf3UzxfT3ee6Hz-222" target="ckIcHxlf3UzxfT3ee6Hz-228">
          <mxGeometry relative="1" as="geometry">
            <mxPoint x="600" y="770" as="targetPoint" />
          </mxGeometry>
        </mxCell>
        <mxCell id="ckIcHxlf3UzxfT3ee6Hz-222" value="IS&lt;br&gt;sanitize == &#39;Y&#39;&lt;br&gt;?" style="strokeWidth=2;html=1;shape=mxgraph.flowchart.decision;whiteSpace=wrap;labelBackgroundColor=#FFFFFF;fontSize=9;" vertex="1" parent="1">
          <mxGeometry x="617.5" y="641" width="95" height="100" as="geometry" />
        </mxCell>
        <mxCell id="ckIcHxlf3UzxfT3ee6Hz-225" value="Y" style="text;html=1;strokeColor=none;fillColor=none;align=center;verticalAlign=middle;whiteSpace=wrap;rounded=0;" vertex="1" parent="1">
          <mxGeometry x="700" y="670" width="60" height="30" as="geometry" />
        </mxCell>
        <mxCell id="ckIcHxlf3UzxfT3ee6Hz-233" value="" style="edgeStyle=orthogonalEdgeStyle;rounded=0;orthogonalLoop=1;jettySize=auto;html=1;fontSize=10;" edge="1" parent="1" source="ckIcHxlf3UzxfT3ee6Hz-226" target="ckIcHxlf3UzxfT3ee6Hz-232">
          <mxGeometry relative="1" as="geometry" />
        </mxCell>
        <mxCell id="ckIcHxlf3UzxfT3ee6Hz-226" value="&lt;font style=&quot;font-size: 10px&quot;&gt;start_sanitize&lt;/font&gt;" style="shape=process;whiteSpace=wrap;html=1;backgroundOutline=1;" vertex="1" parent="1">
          <mxGeometry x="700" y="730" width="91.5" height="30" as="geometry" />
        </mxCell>
        <mxCell id="ckIcHxlf3UzxfT3ee6Hz-231" value="" style="edgeStyle=orthogonalEdgeStyle;rounded=0;orthogonalLoop=1;jettySize=auto;html=1;fontSize=10;" edge="1" parent="1" source="ckIcHxlf3UzxfT3ee6Hz-228" target="ckIcHxlf3UzxfT3ee6Hz-230">
          <mxGeometry relative="1" as="geometry" />
        </mxCell>
        <mxCell id="ckIcHxlf3UzxfT3ee6Hz-228" value="&lt;font style=&quot;font-size: 10px&quot;&gt;stop_sanitize&lt;/font&gt;" style="shape=process;whiteSpace=wrap;html=1;backgroundOutline=1;" vertex="1" parent="1">
          <mxGeometry x="542.5" y="730" width="91.5" height="30" as="geometry" />
        </mxCell>
        <mxCell id="ckIcHxlf3UzxfT3ee6Hz-229" value="N" style="text;html=1;strokeColor=none;fillColor=none;align=center;verticalAlign=middle;whiteSpace=wrap;rounded=0;" vertex="1" parent="1">
          <mxGeometry x="580" y="672" width="60" height="26" as="geometry" />
        </mxCell>
        <mxCell id="ckIcHxlf3UzxfT3ee6Hz-230" value="STOP" style="strokeWidth=2;html=1;shape=mxgraph.flowchart.terminator;whiteSpace=wrap;labelBackgroundColor=#FFFFFF;fontSize=10;" vertex="1" parent="1">
          <mxGeometry x="557.5" y="790" width="60" height="27" as="geometry" />
        </mxCell>
        <mxCell id="ckIcHxlf3UzxfT3ee6Hz-232" value="STOP" style="strokeWidth=2;html=1;shape=mxgraph.flowchart.terminator;whiteSpace=wrap;labelBackgroundColor=#FFFFFF;fontSize=10;" vertex="1" parent="1">
          <mxGeometry x="715.5" y="790" width="60" height="27" as="geometry" />
        </mxCell>
      </root>
    </mxGraphModel>
  </diagram>
  <diagram id="pLkdoZ8KYHXrbHdp3Jan" name="Page-2">
    <mxGraphModel dx="1085" dy="650" grid="1" gridSize="10" guides="1" tooltips="1" connect="1" arrows="1" fold="1" page="1" pageScale="1" pageWidth="850" pageHeight="1100" math="0" shadow="0">
      <root>
        <mxCell id="3HdFzX1IX_BMwxLVg-s2-0" />
        <mxCell id="3HdFzX1IX_BMwxLVg-s2-1" parent="3HdFzX1IX_BMwxLVg-s2-0" />
      </root>
    </mxGraphModel>
  </diagram>
</mxfile>
